<svg width="26" height="26" viewBox="0 0 26 26" fill="none" xmlns="http://www.w3.org/2000/svg">
<path d="M25.3843 22.3649L19.4067 16.305C20.4224 14.6659 21.0118 12.7286 21.0118 10.6496C21.0118 4.76764 16.3079 0 10.5057 0C4.70344 0 0 4.76764 0 10.6496C0 16.5317 4.70322 21.2989 10.5057 21.2989C12.7377 21.2989 14.8051 20.5916 16.5063 19.3896L22.4127 25.3774C22.8231 25.793 23.3611 26 23.8985 26C24.4365 26 24.9739 25.793 25.385 25.3774C26.2051 24.5451 26.2051 23.1969 25.3843 22.3649ZM10.5057 17.8486C6.5839 17.8486 3.40435 14.6257 3.40435 10.65C3.40435 6.67429 6.5839 3.45119 10.5057 3.45119C14.4277 3.45119 17.607 6.67429 17.607 10.65C17.607 14.6257 14.4277 17.8486 10.5057 17.8486Z" fill="#007CC2"/>
</svg>
